<svg width="104" height="19" viewBox="0 0 104 19" fill="none" xmlns="http://www.w3.org/2000/svg">
<path d="M13.6494 10.9051C13.4521 11.0963 13.3615 11.3728 13.4064 11.6439L14.0835 15.3911C14.1406 15.7087 14.0065 16.0301 13.7407 16.2136C13.4803 16.404 13.1337 16.4269 12.8497 16.2745L9.4765 14.5152C9.35921 14.4528 9.22897 14.4192 9.09569 14.4154H8.8893C8.8177 14.4261 8.74764 14.4489 8.68366 14.484L5.30973 16.2517C5.14294 16.3355 4.95406 16.3652 4.76899 16.3355C4.31812 16.2502 4.01728 15.8206 4.09116 15.3675L4.76899 11.6203C4.81392 11.3469 4.72329 11.0689 4.52604 10.8747L1.77587 8.20902C1.54586 7.98587 1.46589 7.65076 1.57099 7.34839C1.67305 7.04679 1.93352 6.82669 2.24806 6.77718L6.03326 6.22806C6.32115 6.19835 6.574 6.02318 6.70348 5.76423L8.3714 2.34457C8.41101 2.26841 8.46203 2.19834 8.52372 2.13893L8.59227 2.08562C8.62806 2.04602 8.66919 2.01327 8.71489 1.98661L8.7979 1.95615L8.92738 1.90283H9.24801C9.53438 1.93254 9.78647 2.1039 9.91823 2.3598L11.6082 5.76423C11.7301 6.01328 11.967 6.18617 12.2404 6.22806L16.0256 6.77718C16.3455 6.82288 16.6128 7.04375 16.7186 7.34839C16.8184 7.6538 16.7323 7.98891 16.4978 8.20902L13.6494 10.9051Z" fill="#F6B76F" style="fill:#F6B76F;fill:color(display-p3 0.9647 0.7176 0.4353);fill-opacity:1;"/>
<path d="M34.9736 10.9061C34.7763 11.0973 34.6857 11.3738 34.7306 11.6449L35.4077 15.392C35.4648 15.7096 35.3308 16.031 35.065 16.2146C34.8045 16.405 34.458 16.4278 34.1739 16.2755L30.8007 14.5162C30.6834 14.4537 30.5532 14.4202 30.4199 14.4164H30.2135C30.1419 14.4271 30.0719 14.4499 30.0079 14.485L26.634 16.2527C26.4672 16.3365 26.2783 16.3662 26.0932 16.3365C25.6423 16.2512 25.3415 15.8216 25.4154 15.3684L26.0932 11.6213C26.1381 11.3479 26.0475 11.0699 25.8503 10.8757L23.1001 8.21C22.8701 7.98684 22.7901 7.65173 22.8952 7.34937C22.9973 7.04777 23.2577 6.82766 23.5723 6.77816L27.3575 6.22903C27.6454 6.19933 27.8982 6.02416 28.0277 5.76521L29.6956 2.34555C29.7352 2.26938 29.7863 2.19932 29.8479 2.13991L29.9165 2.0866C29.9523 2.04699 29.9934 2.01424 30.0391 1.98759L30.1221 1.95712L30.2516 1.90381H30.5722C30.8586 1.93351 31.1107 2.10488 31.2424 2.36078L32.9325 5.76521C33.0543 6.01426 33.2912 6.18714 33.5646 6.22903L37.3498 6.77816C37.6697 6.82385 37.937 7.04472 38.0429 7.34937C38.1426 7.65478 38.0566 7.98989 37.822 8.21L34.9736 10.9061Z" fill="#F6B76F" style="fill:#F6B76F;fill:color(display-p3 0.9647 0.7176 0.4353);fill-opacity:1;"/>
<path d="M56.2949 10.9061C56.0976 11.0973 56.007 11.3738 56.0519 11.6449L56.729 15.392C56.7861 15.7096 56.6521 16.031 56.3863 16.2146C56.1258 16.405 55.7793 16.4278 55.4952 16.2755L52.122 14.5162C52.0047 14.4537 51.8745 14.4202 51.7412 14.4164H51.5348C51.4632 14.4271 51.3931 14.4499 51.3292 14.485L47.9552 16.2527C47.7884 16.3365 47.5996 16.3662 47.4145 16.3365C46.9636 16.2512 46.6628 15.8216 46.7367 15.3684L47.4145 11.6213C47.4594 11.3479 47.3688 11.0699 47.1715 10.8757L44.4214 8.21C44.1914 7.98684 44.1114 7.65173 44.2165 7.34937C44.3186 7.04777 44.579 6.82766 44.8936 6.77816L48.6788 6.22903C48.9667 6.19933 49.2195 6.02416 49.349 5.76521L51.0169 2.34555C51.0565 2.26938 51.1075 2.19932 51.1692 2.13991L51.2378 2.0866C51.2736 2.04699 51.3147 2.01424 51.3604 1.98759L51.4434 1.95712L51.5729 1.90381H51.8935C52.1799 1.93351 52.432 2.10488 52.5637 2.36078L54.2537 5.76521C54.3756 6.01426 54.6125 6.18714 54.8859 6.22903L58.6711 6.77816C58.991 6.82385 59.2583 7.04472 59.3641 7.34937C59.4639 7.65478 59.3779 7.98989 59.1433 8.21L56.2949 10.9061Z" fill="#F6B76F" style="fill:#F6B76F;fill:color(display-p3 0.9647 0.7176 0.4353);fill-opacity:1;"/>
<path d="M77.6231 10.9061C77.4258 11.0973 77.3352 11.3738 77.3801 11.6449L78.0572 15.392C78.1143 15.7096 77.9803 16.031 77.7145 16.2146C77.454 16.405 77.1075 16.4278 76.8234 16.2755L73.4502 14.5162C73.3329 14.4537 73.2027 14.4202 73.0694 14.4164H72.863C72.7914 14.4271 72.7213 14.4499 72.6574 14.485L69.2834 16.2527C69.1166 16.3365 68.9278 16.3662 68.7427 16.3365C68.2918 16.2512 67.991 15.8216 68.0649 15.3684L68.7427 11.6213C68.7876 11.3479 68.697 11.0699 68.4997 10.8757L65.7496 8.21C65.5196 7.98684 65.4396 7.65173 65.5447 7.34937C65.6468 7.04777 65.9072 6.82766 66.2218 6.77816L70.007 6.22903C70.2949 6.19933 70.5477 6.02416 70.6772 5.76521L72.3451 2.34555C72.3847 2.26938 72.4357 2.19932 72.4974 2.13991L72.566 2.0866C72.6018 2.04699 72.6429 2.01424 72.6886 1.98759L72.7716 1.95712L72.9011 1.90381H73.2217C73.5081 1.93351 73.7602 2.10488 73.8919 2.36078L75.582 5.76521C75.7038 6.01426 75.9407 6.18714 76.2141 6.22903L79.9993 6.77816C80.3192 6.82385 80.5865 7.04472 80.6923 7.34937C80.7921 7.65478 80.7061 7.98989 80.4715 8.21L77.6231 10.9061Z" fill="#F6B76F" style="fill:#F6B76F;fill:color(display-p3 0.9647 0.7176 0.4353);fill-opacity:1;"/>
<path d="M98.951 10.9061C98.7538 11.0973 98.6631 11.3738 98.7081 11.6449L99.3851 15.392C99.4423 15.7096 99.3082 16.031 99.0424 16.2146C98.7819 16.405 98.4354 16.4278 98.1513 16.2755L94.7782 14.5162C94.6609 14.4537 94.5306 14.4202 94.3974 14.4164H94.191C94.1194 14.4271 94.0493 14.4499 93.9853 14.485L90.6114 16.2527C90.4446 16.3365 90.2557 16.3662 90.0706 16.3365C89.6198 16.2512 89.3189 15.8216 89.3928 15.3684L90.0706 11.6213C90.1156 11.3479 90.025 11.0699 89.8277 10.8757L87.0775 8.21C86.8475 7.98684 86.7675 7.65173 86.8727 7.34937C86.9747 7.04777 87.2352 6.82766 87.5497 6.77816L91.3349 6.22903C91.6228 6.19933 91.8757 6.02416 92.0051 5.76521L93.6731 2.34555C93.7127 2.26938 93.7637 2.19932 93.8254 2.13991L93.8939 2.0866C93.9297 2.04699 93.9708 2.01424 94.0165 1.98759L94.0996 1.95712L94.229 1.90381H94.5497C94.836 1.93351 95.0881 2.10488 95.2199 2.36078L96.9099 5.76521C97.0318 6.01426 97.2686 6.18714 97.542 6.22903L101.327 6.77816C101.647 6.82385 101.914 7.04472 102.02 7.34937C102.12 7.65478 102.034 7.98989 101.799 8.21L98.951 10.9061Z" fill="#F6B76F" style="fill:#F6B76F;fill:color(display-p3 0.9647 0.7176 0.4353);fill-opacity:1;"/>
</svg>
